# Blender v2.79 (sub 0) OBJ File: ''
# www.blender.org
v -0.985482 0.015424 1.014310
v 0.465601 2.015424 1.335371
v -1.014310 0.015424 -0.985482
v -1.335371 2.015424 0.465601
v 1.014310 0.015424 0.985482
v 1.335371 2.015424 -0.465601
v 0.985482 0.015424 -1.014310
v -0.465601 2.015424 -1.335371
v -0.999896 0.015424 0.014414
v -0.237486 1.015424 1.394131
v -0.434885 2.015424 0.900486
v -1.394131 1.015424 -0.237486
v -0.014414 0.015424 -0.999896
v -0.900486 2.015424 -0.434885
v 0.237486 1.015424 -1.394131
v 0.999896 0.015424 -0.014414
v 0.434885 2.015424 -0.900486
v 1.394131 1.015424 0.237486
v 0.014414 0.015424 0.999896
v 0.900486 2.015424 0.434885
v 0.000000 2.015424 0.000000
v 0.000000 0.015424 0.000000
v 0.578323 1.015424 0.815808
v 0.815808 1.015424 -0.578323
v -0.578323 1.015424 -0.815808
v -0.815808 1.015424 0.578323
v -0.992689 0.015424 0.514362
v 0.254556 1.515424 1.391115
v -0.885128 2.015424 0.683044
v -1.210834 0.515424 -0.730672
v -0.514362 0.015424 -0.992689
v -0.683044 2.015424 -0.885128
v 0.730672 0.515424 -1.210834
v 0.992689 0.015424 -0.514362
v 0.885128 2.015424 -0.683044
v 1.210834 0.515424 0.730672
v 0.514362 0.015424 0.992689
v 0.683044 2.015424 0.885128
v -1.007103 0.015424 -0.485534
v -0.730672 0.515424 1.210834
v 0.015358 2.015424 1.117929
v -1.391115 1.515424 0.254556
v 0.485534 0.015424 -1.007103
v -1.117929 2.015424 0.015358
v -0.254556 1.515424 -1.391115
v 1.007103 0.015424 0.485534
v -0.015358 2.015424 -1.117929
v 1.391115 1.515424 -0.254556
v -0.485534 0.015424 1.007103
v 1.117929 2.015424 -0.015358
v 0.450243 2.015424 0.217442
v -0.450243 2.015424 -0.217442
v 0.217442 2.015424 -0.450243
v -0.217442 2.015424 0.450243
v 0.007207 0.015424 0.499948
v -0.007207 0.015424 -0.499948
v -0.499948 0.015424 0.007207
v 0.499948 0.015424 -0.007207
v 0.170418 1.015424 1.104970
v 0.986227 1.015424 0.526647
v 0.240081 0.515424 0.970753
v 0.822835 1.515424 0.568280
v 1.104970 1.015424 -0.170418
v 0.526647 1.015424 -0.986227
v 0.970753 0.515424 -0.240081
v 0.568280 1.515424 -0.822835
v -0.170418 1.015424 -1.104970
v -0.986227 1.015424 -0.526647
v -0.240081 0.515424 -0.970753
v -0.822835 1.515424 -0.568280
v -1.104970 1.015424 0.170418
v -0.526647 1.015424 0.986227
v -0.970753 0.515424 0.240081
v -0.568280 1.515424 0.822835
v -0.156862 1.515424 1.106975
v -0.850713 0.515424 0.725457
v -1.090793 0.515424 -0.245296
v -1.106975 1.515424 -0.156862
v -0.725457 0.515424 -0.850713
v 0.245296 0.515424 -1.090793
v 0.156862 1.515424 -1.106975
v 0.850713 0.515424 -0.725457
v 1.090793 0.515424 0.245296
v 1.106975 1.515424 0.156862
v 0.725457 0.515424 0.850713
v -0.245296 0.515424 1.090793
v 0.492741 0.015424 -0.507155
v -0.507155 0.015424 -0.492741
v -0.492741 0.015424 0.507155
v -0.667685 2.015424 0.232801
v -0.232801 2.015424 -0.667685
v 0.667685 2.015424 -0.232801
v 0.232801 2.015424 0.667685
v 0.507155 0.015424 0.492741
v 0.538695 1.515424 0.979697
v 0.979697 1.515424 -0.538695
v -0.538695 1.515424 -0.979697
v -0.979697 1.515424 0.538695
vt 1.000000 0.000000
vt 0.000000 1.000000
vt 0.000000 0.000000
vt 1.000000 0.000000
vt 0.000000 1.000000
vt 0.000000 0.000000
vt 1.000000 0.000000
vt 0.000000 1.000000
vt 0.000000 0.000000
vt 1.000000 0.000000
vt 0.000000 1.000000
vt 0.000000 0.000000
vt 1.000000 0.000000
vt 0.000000 1.000000
vt 0.000000 0.000000
vt 1.000000 0.000000
vt 0.000000 1.000000
vt 0.000000 0.000000
vt 1.000000 0.000000
vt 0.000000 1.000000
vt 0.000000 0.000000
vt 1.000000 0.000000
vt 0.000000 1.000000
vt 0.000000 0.000000
vt 0.000000 1.000000
vt 0.000000 0.000000
vt 1.000000 0.000000
vt 0.000000 1.000000
vt 0.000000 0.000000
vt 1.000000 0.000000
vt 0.000000 1.000000
vt 0.000000 0.000000
vt 1.000000 0.000000
vt 0.000000 1.000000
vt 0.000000 0.000000
vt 1.000000 0.000000
vt 0.000000 1.000000
vt 0.000000 0.000000
vt 1.000000 0.000000
vt 0.000000 1.000000
vt 0.000000 0.000000
vt 1.000000 0.000000
vt 0.000000 1.000000
vt 0.000000 0.000000
vt 1.000000 0.000000
vt 0.000000 1.000000
vt 0.000000 0.000000
vt 1.000000 0.000000
vt 0.000000 1.000000
vt 0.000000 0.000000
vt 1.000000 0.000000
vt 0.000000 1.000000
vt 0.000000 0.000000
vt 1.000000 0.000000
vt 0.000000 1.000000
vt 0.000000 0.000000
vt 1.000000 0.000000
vt 0.000000 1.000000
vt 0.000000 0.000000
vt 1.000000 0.000000
vt 0.000000 1.000000
vt 0.000000 0.000000
vt 1.000000 0.000000
vt 0.000000 1.000000
vt 0.000000 0.000000
vt 1.000000 0.000000
vt 0.000000 1.000000
vt 0.000000 0.000000
vt 0.000000 1.000000
vt 0.000000 0.000000
vt 1.000000 0.000000
vt 0.000000 1.000000
vt 0.000000 0.000000
vt 1.000000 0.000000
vt 0.000000 1.000000
vt 0.000000 0.000000
vt 1.000000 0.000000
vt 0.000000 1.000000
vt 0.000000 0.000000
vt 1.000000 0.000000
vt 0.000000 1.000000
vt 0.000000 0.000000
vt 1.000000 0.000000
vt 0.000000 1.000000
vt 0.000000 0.000000
vt 1.000000 0.000000
vt 0.000000 1.000000
vt 0.000000 0.000000
vt 1.000000 0.000000
vt 0.000000 1.000000
vt 0.000000 0.000000
vt 1.000000 0.000000
vt 0.000000 1.000000
vt 0.000000 0.000000
vt 1.000000 0.000000
vt 0.000000 1.000000
vt 0.000000 0.000000
vt 1.000000 0.000000
vt 0.000000 1.000000
vt 0.000000 0.000000
vt 1.000000 0.000000
vt 0.000000 1.000000
vt 0.000000 0.000000
vt 1.000000 0.000000
vt 0.000000 1.000000
vt 0.000000 0.000000
vt 1.000000 0.000000
vt 0.000000 1.000000
vt 0.000000 0.000000
vt 1.000000 0.000000
vt 0.000000 1.000000
vt 0.000000 0.000000
vt 1.000000 0.000000
vt 0.000000 1.000000
vt 0.000000 0.000000
vt 1.000000 0.000000
vt 0.000000 1.000000
vt 0.000000 0.000000
vt 1.000000 0.000000
vt 0.000000 1.000000
vt 0.000000 0.000000
vt 1.000000 0.000000
vt 0.000000 1.000000
vt 0.000000 0.000000
vt 1.000000 0.000000
vt 0.000000 1.000000
vt 0.000000 0.000000
vt 1.000000 0.000000
vt 0.000000 1.000000
vt 0.000000 0.000000
vt 1.000000 0.000000
vt 0.000000 1.000000
vt 0.000000 0.000000
vt 1.000000 0.000000
vt 0.000000 1.000000
vt 0.000000 0.000000
vt 1.000000 0.000000
vt 0.000000 1.000000
vt 0.000000 0.000000
vt 1.000000 0.000000
vt 0.000000 1.000000
vt 0.000000 0.000000
vt 1.000000 0.000000
vt 0.000000 1.000000
vt 0.000000 0.000000
vt 1.000000 0.000000
vt 0.000000 1.000000
vt 0.000000 0.000000
vt 1.000000 0.000000
vt 0.000000 1.000000
vt 0.000000 0.000000
vt 1.000000 0.000000
vt 0.000000 1.000000
vt 0.000000 0.000000
vt 1.000000 0.000000
vt 0.000000 1.000000
vt 0.000000 0.000000
vt 1.000000 0.000000
vt 0.000000 1.000000
vt 0.000000 0.000000
vt 1.000000 0.000000
vt 0.000000 1.000000
vt 0.000000 0.000000
vt 1.000000 0.000000
vt 0.000000 0.000000
vt 1.000000 0.000000
vt 0.000000 1.000000
vt 0.000000 0.000000
vt 1.000000 0.000000
vt 0.000000 1.000000
vt 0.000000 0.000000
vt 1.000000 0.000000
vt 0.000000 0.000000
vt 1.000000 0.000000
vt 0.000000 1.000000
vt 0.000000 0.000000
vt 1.000000 0.000000
vt 0.000000 1.000000
vt 0.000000 0.000000
vt 1.000000 0.000000
vt 0.000000 1.000000
vt 1.000000 0.000000
vt 0.000000 1.000000
vt 1.000000 0.000000
vt 1.000000 0.000000
vt 1.000000 0.000000
vt 0.000000 1.000000
vt 1.000000 0.000000
vt 1.000000 0.000000
vt 1.000000 0.000000
vt 0.000000 1.000000
vt 0.000000 0.000000
vt 1.000000 0.000000
vt 0.000000 1.000000
vt 0.000000 0.000000
vt 0.000000 1.000000
vt 0.000000 0.000000
vt 0.000000 1.000000
vt 0.000000 0.000000
vt 1.000000 0.000000
vt 0.000000 1.000000
vt 0.000000 0.000000
vt 0.000000 1.000000
vt 0.000000 0.000000
vt 1.000000 0.000000
vt 0.000000 1.000000
vt 0.000000 0.000000
vt 1.000000 0.000000
vt 0.000000 1.000000
vt 0.000000 0.000000
vt 1.000000 0.000000
vt 0.000000 1.000000
vt 0.000000 0.000000
vt 1.000000 0.000000
vt 0.000000 1.000000
vt 0.000000 0.000000
vt 1.000000 0.000000
vt 0.000000 1.000000
vt 0.000000 0.000000
vt 1.000000 0.000000
vt 0.000000 1.000000
vt 0.000000 0.000000
vt 1.000000 0.000000
vt 0.000000 1.000000
vt 0.000000 0.000000
vt 1.000000 0.000000
vt 0.000000 0.000000
vt 1.000000 0.000000
vt 0.000000 1.000000
vt 0.000000 0.000000
vt 1.000000 0.000000
vt 0.000000 1.000000
vt 0.000000 0.000000
vt 1.000000 0.000000
vt 0.000000 1.000000
vt 0.000000 0.000000
vt 1.000000 0.000000
vt 0.000000 1.000000
vt 0.000000 0.000000
vt 1.000000 0.000000
vt 0.000000 1.000000
vt 0.000000 0.000000
vt 1.000000 0.000000
vt 0.000000 1.000000
vt 0.000000 0.000000
vt 1.000000 0.000000
vt 0.000000 1.000000
vt 0.000000 0.000000
vt 1.000000 0.000000
vt 0.000000 1.000000
vt 0.000000 0.000000
vt 1.000000 0.000000
vt 0.000000 1.000000
vt 0.000000 0.000000
vt 1.000000 0.000000
vt 0.000000 1.000000
vt 0.000000 0.000000
vt 0.000000 1.000000
vt 0.000000 0.000000
vt 1.000000 0.000000
vt 0.000000 1.000000
vt 0.000000 0.000000
vt 1.000000 0.000000
vt 0.000000 1.000000
vt 0.000000 0.000000
vt 0.000000 1.000000
vt 0.000000 0.000000
vt 1.000000 1.000000
vt 1.000000 1.000000
vt 1.000000 1.000000
vt 1.000000 1.000000
vt 1.000000 1.000000
vt 1.000000 1.000000
vt 1.000000 1.000000
vt 1.000000 1.000000
vt 1.000000 1.000000
vt 1.000000 1.000000
vt 1.000000 1.000000
vt 1.000000 1.000000
vt 1.000000 1.000000
vt 1.000000 1.000000
vt 1.000000 1.000000
vt 1.000000 1.000000
vt 1.000000 1.000000
vt 1.000000 1.000000
vt 1.000000 1.000000
vt 1.000000 1.000000
vt 1.000000 1.000000
vt 1.000000 1.000000
vt 1.000000 1.000000
vt 1.000000 1.000000
vt 1.000000 1.000000
vt 1.000000 1.000000
vt 1.000000 1.000000
vt 1.000000 1.000000
vt 1.000000 1.000000
vt 1.000000 1.000000
vt 1.000000 1.000000
vt 1.000000 1.000000
vt 1.000000 1.000000
vt 1.000000 1.000000
vt 1.000000 1.000000
vt 1.000000 1.000000
vt 1.000000 1.000000
vt 1.000000 1.000000
vt 1.000000 1.000000
vt 1.000000 1.000000
vt 1.000000 1.000000
vt 1.000000 1.000000
vt 1.000000 1.000000
vt 1.000000 1.000000
vt 1.000000 1.000000
vt 1.000000 1.000000
vt 1.000000 1.000000
vt 1.000000 1.000000
vt 1.000000 1.000000
vt 1.000000 1.000000
vt 1.000000 1.000000
vt 1.000000 1.000000
vt 1.000000 1.000000
vt 1.000000 1.000000
vt 1.000000 1.000000
vt 1.000000 1.000000
vt 1.000000 1.000000
vt 1.000000 1.000000
vt 1.000000 1.000000
vt 1.000000 1.000000
vt 1.000000 1.000000
vt 1.000000 1.000000
vt 1.000000 1.000000
vt 1.000000 1.000000
vt 1.000000 1.000000
vt 1.000000 1.000000
vt 1.000000 1.000000
vt 1.000000 1.000000
vt 1.000000 1.000000
vt 1.000000 1.000000
vt 1.000000 1.000000
vt 1.000000 1.000000
vt 1.000000 1.000000
vt 1.000000 1.000000
vt 1.000000 1.000000
vt 1.000000 1.000000
vt 1.000000 1.000000
vt 1.000000 1.000000
vt 1.000000 1.000000
vt 1.000000 1.000000
vt 1.000000 1.000000
vt 1.000000 1.000000
vt 1.000000 1.000000
vt 1.000000 1.000000
vt 1.000000 1.000000
vt 1.000000 1.000000
vt 1.000000 1.000000
vt 1.000000 1.000000
vt 1.000000 1.000000
vn -0.5635 -0.1290 0.8160
vn -0.8160 -0.1290 -0.5635
vn 0.5635 -0.1290 -0.8160
vn 0.8160 -0.1290 0.5635
vn 0.0000 -1.0000 0.0000
vn 0.0000 1.0000 0.0000
vn 0.2341 -0.2215 0.9466
vn 0.2144 0.4500 0.8669
vn 0.8101 0.1750 0.5595
vn 0.9466 -0.2215 -0.2341
vn 0.8669 0.4500 -0.2144
vn 0.5595 0.1750 -0.8101
vn -0.2341 -0.2215 -0.9466
vn -0.2144 0.4500 -0.8669
vn -0.8101 0.1750 -0.5595
vn -0.9466 -0.2215 0.2341
vn -0.8669 0.4500 0.2144
vn -0.5595 0.1750 0.8101
vn -0.7401 0.4207 0.5247
vn -0.6351 0.6277 0.4502
vn -0.5394 0.3147 0.7810
vn -0.9634 0.2677 0.0139
vn -0.8929 0.4500 0.0129
vn -0.7326 0.6562 0.1812
vn -0.9850 -0.1717 0.0142
vn -0.9986 0.0517 0.0144
vn -0.9616 0.1371 0.2378
vn -0.5247 0.4207 -0.7401
vn -0.4502 0.6277 -0.6351
vn -0.7810 0.3147 -0.5394
vn -0.0139 0.2677 -0.9634
vn -0.0129 0.4500 -0.8929
vn -0.1812 0.6562 -0.7326
vn -0.0142 -0.1717 -0.9850
vn -0.0144 0.0517 -0.9986
vn -0.2378 0.1371 -0.9616
vn 0.7401 0.4207 -0.5247
vn 0.6351 0.6277 -0.4502
vn 0.5394 0.3147 -0.7810
vn 0.9634 0.2677 -0.0139
vn 0.8929 0.4500 -0.0129
vn 0.7326 0.6562 -0.1812
vn 0.9850 -0.1717 -0.0142
vn 0.9986 0.0517 -0.0144
vn 0.9616 0.1371 -0.2378
vn 0.5247 0.4207 0.7401
vn 0.4502 0.6277 0.6351
vn 0.7810 0.3147 0.5394
vn 0.0139 0.2677 0.9634
vn 0.0129 0.4500 0.8929
vn 0.1812 0.6562 0.7326
vn 0.0142 -0.1717 0.9850
vn 0.0144 0.0517 0.9986
vn 0.2378 0.1371 0.9616
vn 0.5646 -0.2163 0.7965
vn 0.5741 0.1202 0.8099
vn 0.8226 0.0238 0.5681
vn 0.7965 -0.2163 -0.5646
vn 0.8099 0.1202 -0.5741
vn 0.5681 0.0238 -0.8226
vn -0.5646 -0.2163 -0.7965
vn -0.5741 0.1202 -0.8099
vn -0.8226 0.0238 -0.5681
vn -0.7965 -0.2163 0.5646
vn -0.8099 0.1202 0.5741
vn -0.5681 0.0238 0.8226
vn -0.4128 -0.3147 0.8547
vn -0.8547 -0.3147 -0.4128
vn 0.4128 -0.3147 -0.8547
vn 0.8547 -0.3147 0.4128
vn 0.4364 -0.6562 0.6156
vn 0.5729 -0.1371 0.8081
vn 0.9002 -0.0238 0.4348
vn 0.6156 -0.6562 -0.4364
vn 0.8081 -0.1371 -0.5729
vn 0.4348 -0.0238 -0.9002
vn -0.4364 -0.6562 -0.6156
vn -0.5729 -0.1371 -0.8081
vn -0.9002 -0.0238 -0.4348
vn -0.6156 -0.6562 0.4364
vn -0.8081 -0.1371 0.5729
vn -0.4348 -0.0238 0.9002
vn -0.5642 -0.1202 0.8169
vn -0.5548 0.2163 0.8034
vn -0.4313 0.1290 0.8930
vn -0.9695 -0.0517 0.2398
vn -0.9563 0.1717 0.2365
vn -0.7955 0.2215 0.5640
vn -0.8669 -0.4500 0.2144
vn -0.9353 -0.2677 0.2313
vn -0.7285 -0.4500 0.5164
vn -0.8169 -0.1202 -0.5642
vn -0.8034 0.2163 -0.5548
vn -0.8930 0.1290 -0.4313
vn -0.2398 -0.0517 -0.9695
vn -0.2365 0.1717 -0.9563
vn -0.5640 0.2215 -0.7955
vn -0.2144 -0.4500 -0.8669
vn -0.2313 -0.2677 -0.9353
vn -0.5164 -0.4500 -0.7285
vn 0.5642 -0.1202 -0.8169
vn 0.5548 0.2163 -0.8034
vn 0.4313 0.1290 -0.8930
vn 0.9695 -0.0517 -0.2398
vn 0.9563 0.1717 -0.2365
vn 0.7955 0.2215 -0.5640
vn 0.8669 -0.4500 -0.2144
vn 0.9353 -0.2677 -0.2313
vn 0.7285 -0.4500 -0.5164
vn 0.8169 -0.1202 0.5642
vn 0.8034 0.2163 0.5548
vn 0.8930 0.1290 0.4313
vn 0.2398 -0.0517 0.9695
vn 0.2365 0.1717 0.9563
vn 0.5640 0.2215 0.7955
vn 0.2144 -0.4500 0.8669
vn 0.2313 -0.2677 0.9353
vn 0.5164 -0.4500 0.7285
vn 0.6406 -0.6277 0.4424
vn 0.7465 -0.4207 0.5156
vn 0.8866 -0.1750 0.4282
vn 0.4424 -0.6277 -0.6406
vn 0.5156 -0.4207 -0.7465
vn 0.4282 -0.1750 -0.8866
vn -0.6406 -0.6277 -0.4424
vn -0.7465 -0.4207 -0.5156
vn -0.8866 -0.1750 -0.4282
vn -0.4424 -0.6277 0.6406
vn -0.5156 -0.4207 0.7465
vn -0.4282 -0.1750 0.8866
s off
f 29/1/1 42/2/1 98/3/1
f 32/4/2 45/5/2 97/6/2
f 35/7/3 48/8/3 96/9/3
f 38/10/4 28/11/4 95/12/4
f 46/13/5 37/14/5 94/15/5
f 41/16/6 38/17/6 93/18/6
f 51/19/6 50/20/6 92/21/6
f 52/22/6 53/23/6 91/24/6
f 29/1/6 54/25/6 90/26/6
f 55/27/5 49/28/5 89/29/5
f 56/30/5 57/31/5 88/32/5
f 34/33/5 58/34/5 87/35/5
f 59/36/7 40/37/7 86/38/7
f 60/39/8 61/40/8 85/41/8
f 50/42/9 62/43/9 84/44/9
f 63/45/10 36/46/10 83/47/10
f 64/48/11 65/49/11 82/50/11
f 47/51/12 66/52/12 81/53/12
f 67/54/13 33/55/13 80/56/13
f 68/57/14 69/58/14 79/59/14
f 44/60/15 70/61/15 78/62/15
f 71/63/16 30/64/16 77/65/16
f 72/66/17 73/67/17 76/68/17
f 41/16/18 74/69/18 75/70/18
f 75/71/19 26/72/19 72/73/19
f 28/74/20 72/75/20 10/76/20
f 2/77/21 75/78/21 28/79/21
f 76/80/22 9/81/22 27/82/22
f 40/83/23 27/84/23 1/85/23
f 10/86/24 76/87/24 40/88/24
f 77/89/25 3/90/25 39/91/25
f 73/92/26 39/93/26 9/94/26
f 26/95/27 77/96/27 73/97/27
f 78/98/28 25/99/28 68/100/28
f 42/101/29 68/102/29 12/103/29
f 4/104/30 78/105/30 42/106/30
f 79/107/31 13/108/31 31/109/31
f 30/110/32 31/111/32 3/112/32
f 12/113/33 79/114/33 30/115/33
f 80/116/34 7/117/34 43/118/34
f 69/119/35 43/120/35 13/121/35
f 25/122/36 80/123/36 69/124/36
f 81/125/37 24/126/37 64/127/37
f 45/128/38 64/129/38 15/130/38
f 8/131/39 81/132/39 45/133/39
f 82/134/40 16/135/40 34/136/40
f 33/137/41 34/138/41 7/139/41
f 15/140/42 82/141/42 33/142/42
f 83/143/43 5/144/43 46/145/43
f 65/146/44 46/147/44 16/148/44
f 24/149/45 83/150/45 65/151/45
f 84/152/46 23/153/46 60/154/46
f 48/155/47 60/156/47 18/157/47
f 6/158/48 84/159/48 48/160/48
f 85/161/49 19/162/49 37/163/49
f 36/164/50 37/14/50 5/165/50
f 18/166/51 85/167/51 36/168/51
f 86/169/52 1/170/52 49/171/52
f 61/172/53 49/28/53 19/173/53
f 23/174/54 86/175/54 61/176/54
f 87/177/5 22/178/5 56/179/5
f 43/180/5 56/181/5 13/121/5
f 7/182/5 87/183/5 43/118/5
f 88/184/5 9/81/5 39/91/5
f 31/185/5 39/93/5 3/112/5
f 13/186/5 88/187/5 31/109/5
f 89/188/5 1/170/5 27/82/5
f 57/189/5 27/84/5 9/94/5
f 22/190/5 89/191/5 57/192/5
f 90/193/6 21/194/6 52/195/6
f 44/60/6 52/196/6 14/197/6
f 4/104/6 90/198/6 44/199/6
f 91/200/6 17/201/6 47/202/6
f 32/4/6 47/203/6 8/204/6
f 14/205/6 91/206/6 32/207/6
f 92/208/6 6/209/6 35/210/6
f 53/211/6 35/212/6 17/213/6
f 21/214/6 92/215/6 53/216/6
f 93/217/6 20/218/6 51/219/6
f 54/220/6 51/221/6 21/222/6
f 11/223/6 93/224/6 54/225/6
f 94/226/5 19/162/5 55/227/5
f 58/228/5 55/229/5 22/230/5
f 16/231/5 94/232/5 58/233/5
f 95/234/55 10/235/55 59/236/55
f 62/237/56 59/238/56 23/239/56
f 20/240/57 95/241/57 62/242/57
f 96/243/58 18/244/58 63/245/58
f 66/246/59 63/247/59 24/248/59
f 17/249/60 96/250/60 66/251/60
f 97/252/61 15/253/61 67/254/61
f 70/255/62 67/256/62 25/257/62
f 14/205/63 97/258/63 70/259/63
f 98/260/64 12/261/64 71/262/64
f 74/263/65 71/264/65 26/265/65
f 11/223/66 98/266/66 74/267/66
f 29/1/67 4/268/67 42/2/67
f 32/4/68 8/269/68 45/5/68
f 35/7/69 6/270/69 48/8/69
f 38/10/70 2/271/70 28/11/70
f 46/13/5 5/272/5 37/14/5
f 41/16/6 2/271/6 38/17/6
f 51/19/6 20/273/6 50/20/6
f 52/22/6 21/274/6 53/23/6
f 29/1/6 11/275/6 54/25/6
f 55/27/5 19/276/5 49/28/5
f 56/30/5 22/277/5 57/31/5
f 34/33/5 16/278/5 58/34/5
f 59/36/71 10/279/71 40/37/71
f 60/39/72 23/280/72 61/40/72
f 50/42/73 20/273/73 62/43/73
f 63/45/74 18/281/74 36/46/74
f 64/48/75 24/282/75 65/49/75
f 47/51/76 17/283/76 66/52/76
f 67/54/77 15/284/77 33/55/77
f 68/57/78 25/285/78 69/58/78
f 44/60/79 14/286/79 70/61/79
f 71/63/80 12/287/80 30/64/80
f 72/66/81 26/288/81 73/67/81
f 41/16/82 11/275/82 74/69/82
f 75/71/83 74/289/83 26/72/83
f 28/74/84 75/290/84 72/75/84
f 2/77/85 41/291/85 75/78/85
f 76/80/86 73/292/86 9/81/86
f 40/83/87 76/293/87 27/84/87
f 10/86/88 72/294/88 76/87/88
f 77/89/89 30/295/89 3/90/89
f 73/92/90 77/296/90 39/93/90
f 26/95/91 71/297/91 77/96/91
f 78/98/92 70/298/92 25/99/92
f 42/101/93 78/299/93 68/102/93
f 4/104/94 44/300/94 78/105/94
f 79/107/95 69/301/95 13/108/95
f 30/110/96 79/302/96 31/111/96
f 12/113/97 68/303/97 79/114/97
f 80/116/98 33/304/98 7/117/98
f 69/119/99 80/305/99 43/120/99
f 25/122/100 67/306/100 80/123/100
f 81/125/101 66/307/101 24/126/101
f 45/128/102 81/308/102 64/129/102
f 8/131/103 47/309/103 81/132/103
f 82/134/104 65/310/104 16/135/104
f 33/137/105 82/311/105 34/138/105
f 15/140/106 64/312/106 82/141/106
f 83/143/107 36/313/107 5/144/107
f 65/146/108 83/314/108 46/147/108
f 24/149/109 63/315/109 83/150/109
f 84/152/110 62/316/110 23/153/110
f 48/155/111 84/317/111 60/156/111
f 6/158/112 50/318/112 84/159/112
f 85/161/113 61/319/113 19/162/113
f 36/164/114 85/320/114 37/14/114
f 18/166/115 60/321/115 85/167/115
f 86/169/116 40/322/116 1/170/116
f 61/172/117 86/323/117 49/28/117
f 23/174/118 59/324/118 86/175/118
f 87/177/5 58/325/5 22/178/5
f 43/180/5 87/326/5 56/181/5
f 7/182/5 34/327/5 87/183/5
f 88/184/5 57/328/5 9/81/5
f 31/185/5 88/329/5 39/93/5
f 13/186/5 56/330/5 88/187/5
f 89/188/5 49/331/5 1/170/5
f 57/189/5 89/332/5 27/84/5
f 22/190/5 55/333/5 89/191/5
f 90/193/6 54/334/6 21/194/6
f 44/60/6 90/335/6 52/196/6
f 4/104/6 29/336/6 90/198/6
f 91/200/6 53/337/6 17/201/6
f 32/4/6 91/338/6 47/203/6
f 14/205/6 52/339/6 91/206/6
f 92/208/6 50/318/6 6/209/6
f 53/211/6 92/340/6 35/212/6
f 21/214/6 51/341/6 92/215/6
f 93/217/6 38/342/6 20/218/6
f 54/220/6 93/343/6 51/221/6
f 11/223/6 41/291/6 93/224/6
f 94/226/5 37/344/5 19/162/5
f 58/228/5 94/345/5 55/229/5
f 16/231/5 46/346/5 94/232/5
f 95/234/119 28/347/119 10/235/119
f 62/237/120 95/348/120 59/238/120
f 20/240/121 38/342/121 95/241/121
f 96/243/122 48/349/122 18/244/122
f 66/246/123 96/350/123 63/247/123
f 17/249/124 35/351/124 96/250/124
f 97/252/125 45/352/125 15/253/125
f 70/255/126 97/353/126 67/256/126
f 14/205/127 32/354/127 97/258/127
f 98/260/128 42/355/128 12/261/128
f 74/263/129 98/356/129 71/264/129
f 11/223/130 29/336/130 98/266/130
