# Blender v2.79 (sub 0) OBJ File: 'v3Arena.blend'
# www.blender.org
v 0.000000 0.402501 -0.636193
v 0.196594 1.557431 -0.605055
v 0.196594 0.402501 -0.605055
v 0.373945 0.402501 -0.514691
v 0.373945 1.840782 -0.514691
v 0.514691 0.402501 -0.373945
v 0.514691 1.840782 -0.373945
v 0.605055 0.402501 -0.196594
v 0.605055 1.992121 -0.196594
v 0.636193 0.402501 0.000000
v 0.636193 1.992121 0.000000
v 0.605055 0.402501 0.196594
v 0.605055 1.992121 0.196594
v 0.514691 0.402501 0.373945
v 0.514691 1.998034 0.373945
v 0.373945 0.402501 0.514691
v 0.373945 2.078392 0.514691
v 0.196594 0.402501 0.605055
v 0.196594 2.145557 0.605055
v 0.000000 0.402501 0.636193
v 0.000000 2.145557 0.636193
v -0.196595 0.402501 0.605055
v -0.196595 2.145557 0.605055
v -0.373945 0.402501 0.514690
v -0.373945 2.145557 0.514690
v -0.514691 0.402501 0.373944
v -0.514691 2.145557 0.373944
v -0.605055 0.402501 0.196594
v -0.605055 2.145557 0.196594
v -0.636193 0.402501 -0.000001
v -0.605055 2.104587 -0.196595
v -0.605055 0.402501 -0.196595
v -0.514690 2.039665 -0.373945
v -0.514690 0.402501 -0.373945
v -0.373944 1.900305 -0.514691
v -0.373944 0.402501 -0.514691
v -0.196593 1.577514 -0.605055
v -0.196593 0.402501 -0.605055
v -0.225490 0.279756 -0.693989
v 0.000000 0.145557 -0.729703
v -0.225490 0.145557 -0.693989
v -0.428908 0.279756 -0.590343
v -0.428908 0.145557 -0.590343
v -0.590342 0.279756 -0.428909
v -0.590342 0.145557 -0.428909
v -0.693989 0.279756 -0.225491
v -0.693989 0.145557 -0.225491
v -0.729703 0.279756 -0.000001
v -0.729703 0.145557 -0.000001
v -0.693989 0.279756 0.225490
v -0.693989 0.145557 0.225490
v -0.590343 0.279756 0.428908
v -0.590343 0.145557 0.428908
v -0.428909 0.279756 0.590342
v -0.428909 0.145557 0.590342
v -0.225491 0.279756 0.693989
v -0.225491 0.145557 0.693989
v 0.000000 0.279756 0.729703
v 0.000000 0.145557 0.729703
v 0.225490 0.279756 0.693989
v 0.225490 0.145557 0.693989
v 0.428909 0.279756 0.590342
v 0.428909 0.145557 0.590342
v 0.590342 0.279756 0.428909
v 0.590342 0.145557 0.428909
v 0.693989 0.279756 0.225491
v 0.693989 0.145557 0.225491
v 0.729703 0.279756 0.000000
v 0.729703 0.145557 0.000000
v 0.693989 0.279756 -0.225491
v 0.693989 0.145557 -0.225491
v 0.590342 0.279756 -0.428909
v 0.590342 0.145557 -0.428909
v 0.428909 0.279756 -0.590342
v 0.428909 0.145557 -0.590342
v 0.225491 0.279756 -0.693989
v 0.225491 0.145557 -0.693989
v 0.000000 0.279756 -0.729703
v 0.000000 1.747691 -0.636193
v -0.636193 2.145557 -0.000001
vt 0.000000 0.500000
vt 0.290118 0.550000
vt 0.000000 0.550000
vt 0.000000 0.600000
vt 0.361295 0.600000
vt 0.000000 0.650000
vt 0.361295 0.650000
vt 0.000000 0.700000
vt 0.399312 0.700000
vt 0.000000 0.750000
vt 0.399312 0.750000
vt 0.000000 0.800000
vt 0.399312 0.800000
vt 0.000000 0.850000
vt 0.400797 0.850000
vt 0.000000 0.900000
vt 0.420983 0.900000
vt 0.000000 0.950000
vt 0.437855 0.950000
vt 0.000000 1.000000
vt 0.437855 0.000000
vt 0.000000 0.050000
vt 0.000000 0.000000
vt 0.437855 0.050000
vt 0.000000 0.100000
vt 0.437855 0.100000
vt 0.000000 0.150000
vt 0.437855 0.150000
vt 0.000000 0.200000
vt 0.437855 0.200000
vt 0.000000 0.250000
vt 0.427563 0.300000
vt 0.000000 0.300000
vt 0.411255 0.350000
vt 0.000000 0.350000
vt 0.376247 0.400000
vt 0.000000 0.400000
vt 0.458010 0.535371
vt 0.760113 0.586585
vt 0.491246 0.730271
vt 0.295162 0.450000
vt 0.000000 0.450000
vt 0.528838 0.358728
vt 0.557927 0.427864
vt 0.500810 0.385656
vt 0.494501 0.310898
vt 0.459516 0.327909
vt 0.476420 0.254716
vt 0.437855 0.260207
vt 0.476389 0.195623
vt 0.437966 0.189018
vt 0.494510 0.139382
vt 0.459984 0.121265
vt 0.529061 0.091504
vt 0.501840 0.063625
vt 0.576656 0.056710
vt 0.559438 0.021819
vt 0.632580 0.038428
vt 0.627059 0.000000
vt 0.691263 0.038425
vt 0.697930 0.000294
vt 0.746879 0.056604
vt 0.764969 0.022508
vt 0.793876 0.090915
vt 0.821646 0.064193
vt 0.828012 0.138390
vt 0.862731 0.121504
vt 0.845876 0.194190
vt 0.884170 0.188725
vt 0.845882 0.252889
vt 0.884170 0.259349
vt 0.828104 0.309195
vt 0.862734 0.327097
vt 0.793715 0.357571
vt 0.821245 0.385266
vt 0.746351 0.392902
vt 0.763905 0.427622
vt 0.690924 0.411518
vt 0.696648 0.449897
vt 0.632207 0.411769
vt 0.625606 0.450080
vt 0.576173 0.393520
vt 0.556632 0.332251
vt 0.529199 0.294205
vt 0.514623 0.249410
vt 0.514373 0.202265
vt 0.528585 0.157368
vt 0.555886 0.119088
vt 0.593592 0.091170
vt 0.637976 0.076340
vt 0.684640 0.076022
vt 0.728993 0.090215
vt 0.766785 0.117646
vt 0.807907 0.200143
vt 0.807683 0.247582
vt 0.793330 0.292532
vt 0.729015 0.358721
vt 0.684800 0.373785
vt 0.594206 0.359749
vt 0.677427 0.759510
vt 0.632020 0.833703
vt 0.580032 0.788081
vt 0.522631 0.820214
vt 0.452478 0.683127
vt 0.437855 0.632608
vt 0.438888 0.581570
vt 0.487399 0.494921
vt 0.527849 0.465531
vt 0.575402 0.450080
vt 0.625402 0.450080
vt 0.673425 0.464003
vt 0.715514 0.495833
vt 0.749489 0.537704
vt 0.768759 0.635831
vt 0.761765 0.685340
vt 0.718239 0.730625
vt 0.638177 0.373897
vt 0.765945 0.330586
vt 0.793904 0.155502
vt 0.337911 0.500000
vt 0.437855 0.250000
vt 0.437855 1.000000
vn 0.1564 0.0000 -0.9877
vn 0.4540 0.0000 -0.8910
vn 0.7071 0.0000 -0.7071
vn 0.8910 0.0000 -0.4540
vn 0.9877 -0.0000 -0.1564
vn 0.9877 -0.0000 0.1564
vn 0.8910 -0.0000 0.4540
vn 0.7071 -0.0000 0.7071
vn 0.4540 -0.0000 0.8910
vn 0.1564 -0.0000 0.9877
vn -0.1564 -0.0000 0.9877
vn -0.4540 -0.0000 0.8910
vn -0.7071 -0.0000 0.7071
vn -0.8910 -0.0000 0.4540
vn -0.9877 -0.0000 0.1564
vn -0.9877 0.0000 -0.1564
vn -0.8910 0.0000 -0.4540
vn -0.7071 0.0000 -0.7071
vn 0.1204 0.9499 -0.2884
vn -0.4540 0.0000 -0.8910
vn -0.1564 0.0000 -0.9877
vn -0.1250 0.6013 -0.7892
vn -0.3628 0.6013 -0.7120
vn -0.5650 0.6013 -0.5650
vn -0.7120 0.6013 -0.3628
vn -0.7892 0.6013 -0.1250
vn -0.7892 0.6012 -0.1250
vn -0.7892 0.6013 0.1250
vn -0.7120 0.6013 0.3628
vn -0.5650 0.6013 0.5650
vn -0.3628 0.6013 0.7120
vn -0.1250 0.6013 0.7892
vn -0.1250 0.6012 0.7892
vn 0.1250 0.6013 0.7892
vn 0.3628 0.6012 0.7120
vn 0.3628 0.6013 0.7120
vn 0.5650 0.6012 0.5650
vn 0.7120 0.6013 0.3628
vn 0.7120 0.6012 0.3628
vn 0.7892 0.6013 0.1250
vn 0.7892 0.6013 -0.1250
vn 0.7892 0.6012 -0.1250
vn 0.7120 0.6013 -0.3628
vn 0.7120 0.6012 -0.3628
vn 0.5650 0.6012 -0.5650
vn 0.3628 0.6013 -0.7120
vn 0.3628 0.6012 -0.7120
vn 0.1250 0.6013 -0.7892
vn 0.1250 0.6012 -0.7892
vn 0.2769 0.1303 -0.9520
vn -0.2600 0.1252 -0.9575
vn 0.7746 0.6087 0.1718
vn 0.5475 0.8323 -0.0867
vn 0.0000 1.0000 -0.0000
vn -0.0644 0.9113 -0.4067
vn 0.6964 0.6354 0.3336
vn -0.8586 0.5127 0.0000
vn 0.0559 0.7021 -0.7099
vn 0.5930 0.8008 -0.0834
vn 0.3568 0.9342 0.0058
vn 0.2879 0.9134 -0.2879
vn 0.0772 0.9698 -0.2314
vn 0.1239 0.9775 -0.1706
vn 0.7892 0.6012 0.1250
vn 0.1250 0.6012 0.7892
vn -0.7892 0.6012 0.1250
vn -0.1250 0.6012 -0.7892
s 1
f 1/1/1 2/2/1 3/3/1
f 2/2/2 4/4/2 3/3/2
f 5/5/3 6/6/3 4/4/3
f 7/7/4 8/8/4 6/6/4
f 9/9/5 10/10/5 8/8/5
f 11/11/6 12/12/6 10/10/6
f 13/13/7 14/14/7 12/12/7
f 15/15/8 16/16/8 14/14/8
f 17/17/9 18/18/9 16/16/9
f 19/19/10 20/20/10 18/18/10
f 21/21/11 22/22/11 20/23/11
f 23/24/12 24/25/12 22/22/12
f 25/26/13 26/27/13 24/25/13
f 27/28/14 28/29/14 26/27/14
f 29/30/15 30/31/15 28/29/15
f 30/31/16 31/32/16 32/33/16
f 32/33/17 33/34/17 34/35/17
f 34/35/18 35/36/18 36/37/18
f 29/38/19 13/39/19 35/40/19
f 36/37/20 37/41/20 38/42/20
f 37/41/21 1/1/21 38/42/21
f 39/43/21 40/44/21 41/45/21
f 42/46/20 41/45/20 43/47/20
f 44/48/18 43/47/18 45/49/18
f 46/50/17 45/49/17 47/51/17
f 48/52/16 47/51/16 49/53/16
f 50/54/15 49/53/15 51/55/15
f 52/56/14 51/55/14 53/57/14
f 54/58/13 53/57/13 55/59/13
f 56/60/12 55/59/12 57/61/12
f 58/62/11 57/61/11 59/63/11
f 60/64/10 59/63/10 61/65/10
f 62/66/9 61/65/9 63/67/9
f 64/68/8 63/67/8 65/69/8
f 66/70/7 65/69/7 67/71/7
f 68/72/6 67/71/6 69/73/6
f 70/74/5 69/73/5 71/75/5
f 72/76/4 71/75/4 73/77/4
f 74/78/3 73/77/3 75/79/3
f 76/80/2 75/79/2 77/81/2
f 78/82/1 77/81/1 40/44/1
f 38/83/22 78/82/22 39/43/22
f 36/84/23 39/43/23 42/46/23
f 34/85/24 42/46/24 44/48/24
f 32/86/25 44/48/25 46/50/25
f 30/87/26 46/50/26 48/52/27
f 28/88/28 48/52/28 50/54/28
f 26/89/29 50/54/29 52/56/29
f 24/90/30 52/56/30 54/58/30
f 22/91/31 54/58/31 56/60/31
f 20/92/32 56/60/32 58/62/33
f 18/93/34 58/62/34 60/64/34
f 62/66/35 18/93/36 60/64/36
f 14/94/37 62/66/37 64/68/37
f 66/70/38 14/94/38 64/68/39
f 68/72/40 12/95/40 66/70/40
f 70/74/41 10/96/41 68/72/42
f 6/97/43 70/74/43 72/76/44
f 4/98/45 72/76/45 74/78/45
f 76/80/46 4/98/46 74/78/47
f 1/99/48 76/80/48 78/82/49
f 5/100/50 2/101/50 79/102/50
f 79/102/51 37/103/51 35/40/51
f 35/40/52 33/104/52 31/105/52
f 31/105/53 80/106/53 29/38/53
f 29/38/54 27/107/54 25/108/54
f 25/108/54 23/109/54 29/38/54
f 21/110/55 19/111/55 13/39/55
f 17/112/56 15/113/56 13/39/56
f 13/39/54 11/114/54 9/115/54
f 9/115/57 7/116/57 13/39/57
f 5/100/58 79/102/58 35/40/58
f 35/40/59 31/105/59 29/38/59
f 29/38/54 23/109/54 21/110/54
f 19/111/60 17/112/60 13/39/60
f 13/39/61 7/116/61 5/100/61
f 5/100/62 35/40/62 13/39/62
f 29/38/63 21/110/63 13/39/63
f 1/99/48 3/117/48 76/80/48
f 76/80/46 3/117/46 4/98/46
f 4/98/45 6/97/45 72/76/45
f 6/97/43 8/118/43 70/74/43
f 70/74/41 8/118/41 10/96/41
f 68/72/40 10/96/64 12/95/40
f 66/70/38 12/95/38 14/94/38
f 14/94/37 16/119/37 62/66/37
f 62/66/35 16/119/35 18/93/36
f 18/93/34 20/92/65 58/62/34
f 20/92/32 22/91/32 56/60/32
f 22/91/31 24/90/31 54/58/31
f 24/90/30 26/89/30 52/56/30
f 26/89/29 28/88/29 50/54/29
f 28/88/28 30/87/66 48/52/28
f 30/87/26 32/86/26 46/50/26
f 32/86/25 34/85/25 44/48/25
f 34/85/24 36/84/24 42/46/24
f 36/84/23 38/83/23 39/43/23
f 38/83/22 1/99/67 78/82/22
f 78/82/1 76/80/1 77/81/1
f 76/80/2 74/78/2 75/79/2
f 74/78/3 72/76/3 73/77/3
f 72/76/4 70/74/4 71/75/4
f 70/74/5 68/72/5 69/73/5
f 68/72/6 66/70/6 67/71/6
f 66/70/7 64/68/7 65/69/7
f 64/68/8 62/66/8 63/67/8
f 62/66/9 60/64/9 61/65/9
f 60/64/10 58/62/10 59/63/10
f 58/62/11 56/60/11 57/61/11
f 56/60/12 54/58/12 55/59/12
f 54/58/13 52/56/13 53/57/13
f 52/56/14 50/54/14 51/55/14
f 50/54/15 48/52/15 49/53/15
f 48/52/16 46/50/16 47/51/16
f 46/50/17 44/48/17 45/49/17
f 44/48/18 42/46/18 43/47/18
f 42/46/20 39/43/20 41/45/20
f 39/43/21 78/82/21 40/44/21
f 37/41/21 79/120/21 1/1/21
f 36/37/20 35/36/20 37/41/20
f 34/35/18 33/34/18 35/36/18
f 32/33/17 31/32/17 33/34/17
f 30/31/16 80/121/16 31/32/16
f 29/30/15 80/121/15 30/31/15
f 27/28/14 29/30/14 28/29/14
f 25/26/13 27/28/13 26/27/13
f 23/24/12 25/26/12 24/25/12
f 21/21/11 23/24/11 22/22/11
f 19/19/10 21/122/10 20/20/10
f 17/17/9 19/19/9 18/18/9
f 15/15/8 17/17/8 16/16/8
f 13/13/7 15/15/7 14/14/7
f 11/11/6 13/13/6 12/12/6
f 9/9/5 11/11/5 10/10/5
f 7/7/4 9/9/4 8/8/4
f 5/5/3 7/7/3 6/6/3
f 2/2/2 5/5/2 4/4/2
f 1/1/1 79/120/1 2/2/1
