# Blender v2.78 (sub 0) OBJ File: 'jonWShield.blend'
# www.blender.org
v 0.418021 0.511098 0.309443
v 0.471035 1.470312 0.304804
v 0.432143 0.511098 0.470857
v 0.485157 1.470312 0.466219
v -0.475758 0.511098 0.387638
v -0.528772 1.470312 0.392276
v -0.461636 0.511098 0.549052
v -0.514650 1.470312 0.553690
v 0.488748 0.511098 0.384579
v 0.503653 0.968499 0.301951
v 0.549315 1.505009 0.379281
v 0.517775 0.968499 0.463365
v -0.010024 0.123680 0.563940
v -0.008392 1.565153 0.582590
v -0.547268 0.968499 0.556544
v -0.532364 0.511098 0.473915
v -0.592930 1.505009 0.479214
v -0.561390 0.968499 0.395130
v -0.022312 0.123680 0.423479
v -0.023944 1.565153 0.404829
v -0.016168 1.605407 0.493709
v -0.016168 0.123680 0.493709
v -0.023944 0.968499 0.404829
v -0.630195 0.968499 0.482475
v -0.008392 0.968499 0.582590
v 0.586580 0.968499 0.376020
v -0.261821 1.419798 0.564710
v -0.130598 0.193267 0.390579
v -0.116476 0.193267 0.551994
v -0.275943 1.419798 0.403296
v -0.304492 1.454494 0.487118
v -0.138440 0.193267 0.472590
v 0.092737 0.193267 0.533690
v 0.223960 1.419798 0.359560
v 0.238082 1.419798 0.520974
v 0.078615 0.193267 0.372276
v 0.266631 1.454494 0.437151
v 0.100579 0.193267 0.451679
v 0.513929 0.732122 0.463701
v -0.543423 0.732122 0.556208
v -0.557545 0.732122 0.394794
v 0.499808 0.732122 0.302287
v -0.023944 0.652733 0.404829
v -0.625802 0.732122 0.482090
v -0.008392 0.652733 0.582590
v 0.582187 0.732122 0.376405
v 0.499283 1.219406 0.302333
v 0.513405 1.219406 0.463747
v -0.542898 1.219406 0.556162
v -0.557020 1.219406 0.394748
v -0.023944 1.219406 0.404829
v -0.625203 1.219406 0.482038
v -0.008392 1.219406 0.582590
v 0.581587 1.219406 0.376457
v 0.101111 1.459825 0.552983
v 0.074350 0.252122 0.393835
v 0.109540 1.497301 0.466803
v 0.087555 0.252122 0.544773
v 0.086274 1.459825 0.383396
v 0.094986 0.252122 0.468076
v -0.109448 0.252122 0.562009
v -0.136209 1.459825 0.402860
v -0.130084 0.252122 0.487767
v -0.121372 1.459825 0.572448
v -0.122653 0.252122 0.411071
v -0.144639 1.497301 0.489041
v 0.308638 0.372662 0.498231
v 0.347498 1.412940 0.332182
v 0.347444 0.372662 0.413512
v 0.361620 1.412940 0.493596
v 0.294516 0.372662 0.336817
v 0.407973 1.447636 0.408216
v -0.388236 1.412940 0.559200
v -0.349376 0.372662 0.393151
v -0.448711 1.447636 0.483166
v -0.335254 0.372662 0.554565
v -0.402358 1.412940 0.397786
v -0.388182 0.372662 0.477871
vt 0.5579 0.6960
vt 0.6619 0.7386
vt 0.5599 0.7396
vt 0.5508 0.9114
vt 0.6553 0.9546
vt 0.5527 0.9551
vt 0.9701 0.4897
vt 0.7425 0.3782
vt 0.9737 0.3819
vt 0.2163 0.8982
vt 0.2722 0.9391
vt 0.2027 0.9299
vt 0.7100 0.7089
vt 0.6641 0.6572
vt 0.7414 0.6601
vt 0.8898 0.8870
vt 0.9776 0.9321
vt 0.8883 0.9448
vt 0.9779 0.8242
vt 0.8879 0.8294
vt 0.7375 0.7606
vt 0.0804 0.7035
vt 0.0173 0.6795
vt 0.0793 0.6747
vt 0.0765 0.7322
vt 0.0159 0.7068
vt 0.2739 0.8707
vt 0.2039 0.8659
vt 0.6312 0.5706
vt 0.5117 0.4826
vt 0.7409 0.4861
vt 0.3669 0.9071
vt 0.4512 0.9542
vt 0.3589 0.9470
vt 0.4534 0.8641
vt 0.3608 0.8669
vt 0.6566 0.8732
vt 0.5547 0.8679
vt 0.3739 0.6924
vt 0.4585 0.7391
vt 0.3662 0.7324
vt 0.4602 0.6490
vt 0.3677 0.6522
vt 0.5616 0.6523
vt 0.0945 0.8574
vt 0.0741 0.8836
vt 0.0714 0.8547
vt 0.7330 0.8544
vt 0.7876 0.8959
vt 0.7033 0.9049
vt 0.7327 0.9550
vt 0.0970 0.8897
vt 0.0718 0.9123
vt 0.2094 0.7267
vt 0.1036 0.6984
vt 0.2231 0.6949
vt 0.2108 0.6627
vt 0.8076 0.7751
vt 0.8956 0.7346
vt 0.8911 0.7922
vt 0.8122 0.6693
vt 0.8965 0.6768
vt 0.6059 0.1198
vt 0.7042 0.0693
vt 0.7446 0.2422
vt 0.7903 0.0706
vt 0.8871 0.1242
vt 0.2934 0.6910
vt 0.2807 0.6564
vt 0.2795 0.7248
vt 0.2814 0.2420
vt 0.3273 0.0703
vt 0.4238 0.1235
vt 0.2864 0.9052
vt 0.4598 0.6940
vt 0.4528 0.9091
vt 0.5145 0.2732
vt 0.2791 0.3776
vt 0.0506 0.2719
vt 0.9852 0.6933
vt 0.9968 0.7479
vt 0.9809 0.8012
vt 0.0997 0.7306
vt 0.1013 0.6661
vt 0.3852 0.5734
vt 0.5075 0.4891
vt 0.4396 0.5713
vt 0.0100 0.9049
vt 0.0098 0.8775
vt 0.0098 0.8507
vt 0.5111 0.3813
vt 0.8037 0.8429
vt 0.8038 0.9488
vt 0.5110 0.2796
vt 0.0471 0.4815
vt 0.2773 0.4854
vt 0.1666 0.5698
vt 0.7938 0.7214
vt 0.9737 0.2803
vt 0.6417 0.9131
vt 0.8479 0.5740
vt 0.9023 0.5719
vt 0.1429 0.1188
vt 0.2412 0.0688
vt 0.0934 0.9218
vt 0.6487 0.6981
vt 0.9915 0.8781
vt 0.0148 0.7336
vt 0.5769 0.5669
vt 0.5221 0.5907
vt 0.7386 0.6347
vt 0.6910 0.5887
vt 0.5114 0.3748
vt 0.5509 0.1787
vt 0.7481 0.0145
vt 0.6998 0.0427
vt 0.9403 0.1847
vt 0.7956 0.0441
vt 0.4774 0.1838
vt 0.2851 0.0145
vt 0.3309 0.0447
vt 0.0471 0.3735
vt 0.3244 0.5897
vt 0.2748 0.6341
vt 0.4937 0.5969
vt 0.1122 0.5659
vt 0.0574 0.5896
vt 0.2268 0.5880
vt 0.7876 0.5902
vt 0.9563 0.5973
vt 0.0873 0.1773
vt 0.2383 0.0431
vn 0.7854 0.0824 0.6135
vn -0.7854 0.0824 -0.6135
vn 0.0180 -0.0018 -0.9998
vn -0.6939 -0.6461 -0.3178
vn -0.4324 0.8992 -0.0665
vn -0.6351 0.6837 -0.3594
vn -0.6278 0.6294 0.4579
vn -0.3866 0.9084 0.1593
vn 0.7572 -0.6184 -0.2105
vn 0.7613 -0.6441 0.0738
vn -0.6652 -0.5890 0.4590
vn -0.1922 0.0161 -0.9812
vn -0.1922 0.0000 -0.9813
vn -0.7877 -0.0119 -0.6159
vn -0.6688 -0.0119 0.7433
vn -0.6669 0.0824 0.7405
vn 0.7877 -0.0119 0.6159
vn 0.6688 -0.0119 -0.7433
vn 0.6669 0.0824 -0.7405
vn 0.9612 -0.0693 -0.2672
vn -0.0547 0.8912 0.4502
vn -0.0330 0.9195 -0.3916
vn 0.9819 -0.1639 0.0951
vn 0.5929 -0.7581 0.2716
vn 0.5133 -0.7817 -0.3542
vn 0.3422 0.8490 0.4027
vn 0.1783 0.8780 -0.4442
vn -0.2347 -0.0309 -0.9716
vn 0.0624 -0.0309 -0.9976
vn 0.6990 -0.2800 -0.6580
vn 0.8027 -0.2800 0.5266
vn 0.2256 -0.0379 0.9735
vn -0.6990 -0.2800 0.6580
vn -0.8027 -0.2800 -0.5266
vn 0.6661 0.0146 -0.7457
vn -0.6661 0.0146 0.7457
vn -0.1921 0.0000 -0.9814
vn -0.7855 0.0146 -0.6187
vn -0.0492 0.0000 0.9988
vn 0.7855 0.0146 0.6187
vn 0.5537 0.7393 -0.3833
vn 0.6609 0.7036 0.2609
vn -0.9932 -0.0679 -0.0950
vn -0.9506 -0.1652 0.2629
vn 0.2174 0.0200 0.9759
vn -0.7480 -0.6604 0.0654
vn -0.7894 -0.6100 0.0691
vn 0.2210 0.0024 0.9753
vn -0.2297 0.8352 0.4998
vn -0.2277 0.8699 -0.4376
vn 0.2210 -0.0022 0.9753
vn 0.5449 -0.6634 -0.5129
vn 0.6725 -0.5942 0.4412
vn -0.0494 0.0000 0.9988
vn -0.0494 0.0267 0.9984
vn 0.1428 0.8964 0.4197
vn -0.0357 0.9195 -0.3915
vn 0.0180 0.0017 -0.9998
vn 0.3702 0.9240 -0.0956
vn 0.3682 0.9286 0.0456
vn 0.0446 -0.0200 -0.9988
vn -0.0531 -0.0379 0.9979
vn -0.6234 -0.7627 0.1724
vn -0.6333 -0.7715 -0.0606
vn 0.7858 0.0827 0.6129
vn -0.7858 0.0827 -0.6129
vn 0.0189 0.0000 -0.9998
vn -0.6257 -0.6634 -0.4105
vn -0.3812 0.9240 -0.0298
vn -0.6119 0.7393 -0.2813
vn -0.6056 0.7036 0.3717
vn -0.3547 0.9286 0.1089
vn 0.7480 -0.6604 -0.0654
vn 0.7894 -0.6100 -0.0691
vn -0.5857 -0.5942 0.5513
vn -0.2101 -0.0140 -0.9776
vn -0.1909 0.0000 -0.9816
vn -0.2174 -0.0200 -0.9759
vn -0.1730 -0.0085 -0.9849
vn -0.1914 -0.0018 -0.9815
vn -0.7855 -0.0136 -0.6187
vn -0.6661 -0.0136 0.7457
vn -0.6674 0.0827 0.7401
vn 0.7855 -0.0136 0.6187
vn 0.6661 -0.0136 -0.7457
vn 0.6674 0.0827 -0.7401
vn 0.9616 -0.0679 -0.2660
vn -0.0677 0.8964 0.4381
vn -0.0328 0.9195 -0.3918
vn 0.9818 -0.1652 0.0939
vn 0.6438 -0.7627 0.0616
vn 0.6132 -0.7715 -0.1696
vn 0.3130 0.8352 0.4523
vn 0.1482 0.8699 -0.4705
vn -0.1980 0.0416 -0.9793
vn -0.2122 -0.0040 -0.9772
vn -0.2504 -0.0349 -0.9675
vn -0.3866 0.2924 -0.8747
vn 0.0393 -0.0040 -0.9992
vn 0.0786 -0.0349 -0.9963
vn 0.2288 0.2924 -0.9285
vn 0.0250 0.0416 -0.9988
vn 0.6388 -0.2963 -0.7100
vn 0.7524 -0.2963 0.5883
vn 0.2393 -0.0215 0.9707
vn 0.2367 -0.0350 0.9709
vn 0.2829 -0.1534 0.9468
vn 0.2293 -0.0534 0.9719
vn -0.6388 -0.2963 0.7100
vn -0.7524 -0.2963 -0.5883
vn 0.6692 0.0128 -0.7430
vn -0.6692 0.0128 0.7430
vn -0.1914 0.0017 -0.9815
vn -0.7880 0.0128 -0.6155
vn -0.0483 -0.0022 0.9988
vn 0.7880 0.0128 0.6155
vn 0.5631 0.6837 -0.4643
vn 0.6978 0.6294 0.3419
vn -0.9929 -0.0693 -0.0962
vn -0.9504 -0.1639 0.2642
vn 0.2610 0.0000 0.9653
vn 0.2220 0.0267 0.9747
vn 0.2101 0.0140 0.9776
vn 0.2315 0.0143 0.9727
vn -0.7822 -0.6184 -0.0758
vn -0.7370 -0.6441 0.2048
vn 0.2221 0.0000 0.9750
vn -0.2671 0.8490 0.4560
vn -0.2528 0.8780 -0.4065
vn 0.2219 0.0000 0.9751
vn 0.6282 -0.6461 -0.4335
vn 0.7348 -0.5890 0.3365
vn -0.0483 0.0024 0.9988
vn -0.0372 0.0140 0.9992
vn -0.0894 0.0000 0.9960
vn -0.0446 0.0200 0.9988
vn -0.0591 0.0143 0.9981
vn 0.1321 0.8912 0.4339
vn -0.0355 0.9195 -0.3914
vn 0.0188 0.0000 -0.9998
vn 0.4142 0.8993 -0.1405
vn 0.4084 0.9084 0.0897
vn 0.0175 0.0000 -0.9998
vn 0.0189 0.0161 -0.9997
vn 0.0372 -0.0140 -0.9992
vn -0.0007 -0.0085 -1.0000
vn -0.0571 -0.0534 0.9969
vn -0.0671 -0.0215 0.9975
vn -0.0645 -0.0350 0.9973
vn -0.1142 -0.1534 0.9815
vn -0.5367 -0.7581 0.3704
vn -0.5670 -0.7817 -0.2597
s off
f 54/1/1 4/2/1 48/3/1
f 52/4/2 6/5/2 50/6/2
f 50/7/3 23/8/3 18/9/3
f 78/10/4 5/11/4 74/12/4
f 72/13/5 2/14/5 68/15/5
f 66/16/6 20/17/6 62/18/6
f 14/19/7 66/16/7 64/20/7
f 4/2/8 72/13/8 70/21/8
f 60/22/9 19/23/9 56/24/9
f 58/25/10 22/26/10 60/22/10
f 7/27/11 78/10/11 76/28/11
f 34/29/12 47/30/12 51/31/12
f 47/30/13 23/8/13 51/31/13
f 44/32/14 18/33/14 41/34/14
f 15/35/15 44/32/15 40/36/15
f 8/37/16 52/4/16 49/38/16
f 46/39/17 12/40/17 39/41/17
f 10/42/18 46/39/18 42/43/18
f 2/14/19 54/1/19 47/44/19
f 29/45/20 63/46/20 61/47/20
f 73/48/21 31/49/21 75/50/21
f 31/49/22 77/51/22 75/50/22
f 32/52/23 65/53/23 63/46/23
f 67/54/24 38/55/24 69/56/24
f 38/55/25 71/57/25 69/56/25
f 35/58/26 57/59/26 55/60/26
f 57/59/27 34/61/27 59/62/27
f 71/63/28 56/64/28 43/65/28
f 43/65/29 65/66/29 74/67/29
f 42/43/30 9/68/30 1/69/30
f 9/68/31 39/41/31 3/70/31
f 45/71/32 58/72/32 67/73/32
f 40/36/33 16/74/33 7/27/33
f 16/74/34 41/34/34 5/11/34
f 10/42/35 54/1/35 26/75/35
f 15/35/36 52/4/36 24/76/36
f 23/8/37 42/77/37 43/65/37
f 52/4/38 18/33/38 24/76/38
f 25/78/39 40/79/39 45/71/39
f 54/1/40 12/40/40 26/75/40
f 57/59/41 20/80/41 21/81/41
f 14/82/42 57/59/42 21/81/42
f 33/83/43 60/22/43 38/55/43
f 38/55/44 56/24/44 36/84/44
f 35/85/45 48/86/45 70/87/45
f 63/46/46 19/88/46 22/89/46
f 61/47/47 22/89/47 13/90/47
f 48/86/48 25/78/48 12/91/48
f 27/92/49 66/16/49 31/49/49
f 66/16/50 30/93/50 31/49/50
f 25/78/51 39/94/51 12/91/51
f 69/56/52 1/69/52 9/68/52
f 3/70/53 69/56/53 9/68/53
f 49/95/54 25/78/54 53/96/54
f 27/97/55 49/95/55 53/96/55
f 70/21/56 37/98/56 35/58/56
f 37/98/57 68/15/57 34/61/57
f 23/8/58 41/99/58 18/9/58
f 75/50/59 6/5/59 17/100/59
f 8/37/60 75/50/60 17/100/60
f 30/101/61 50/7/61 77/102/61
f 76/103/62 61/104/62 45/71/62
f 76/28/63 32/52/63 29/45/63
f 32/52/64 74/12/64 28/105/64
f 54/1/65 11/106/65 4/2/65
f 52/4/66 17/100/66 6/5/66
f 50/7/67 51/31/67 23/8/67
f 78/10/68 16/74/68 5/11/68
f 72/13/69 11/106/69 2/14/69
f 66/16/70 21/107/70 20/17/70
f 14/19/71 21/107/71 66/16/71
f 4/2/72 11/106/72 72/13/72
f 60/22/73 22/26/73 19/23/73
f 58/25/74 13/108/74 22/26/74
f 7/27/75 16/74/75 78/10/75
f 68/109/76 2/110/76 47/30/76
f 51/31/77 20/111/77 59/112/77
f 34/29/78 68/109/78 47/30/78
f 51/31/79 59/112/79 34/29/79
f 47/30/80 10/113/80 23/8/80
f 44/32/81 24/76/81 18/33/81
f 15/35/82 24/76/82 44/32/82
f 8/37/83 17/100/83 52/4/83
f 46/39/84 26/75/84 12/40/84
f 10/42/85 26/75/85 46/39/85
f 2/14/86 11/106/86 54/1/86
f 29/45/87 32/52/87 63/46/87
f 73/48/88 27/92/88 31/49/88
f 31/49/89 30/93/89 77/51/89
f 32/52/90 28/105/90 65/53/90
f 67/54/91 33/83/91 38/55/91
f 38/55/92 36/84/92 71/57/92
f 35/58/93 37/98/93 57/59/93
f 57/59/94 37/98/94 34/61/94
f 43/65/95 42/77/95 1/114/95
f 1/114/96 71/63/96 43/65/96
f 56/64/97 19/115/97 43/65/97
f 71/63/98 36/116/98 56/64/98
f 74/67/99 5/117/99 43/65/99
f 43/65/100 19/115/100 65/66/100
f 65/66/101 28/118/101 74/67/101
f 5/117/102 41/99/102 43/65/102
f 42/43/103 46/39/103 9/68/103
f 9/68/104 46/39/104 39/41/104
f 67/73/105 3/119/105 45/71/105
f 45/71/106 13/120/106 58/72/106
f 58/72/107 33/121/107 67/73/107
f 3/119/108 39/94/108 45/71/108
f 40/36/109 44/32/109 16/74/109
f 16/74/110 44/32/110 41/34/110
f 10/42/111 47/44/111 54/1/111
f 15/35/112 49/38/112 52/4/112
f 23/8/113 10/113/113 42/77/113
f 52/4/114 50/6/114 18/33/114
f 25/78/115 15/122/115 40/79/115
f 54/1/116 48/3/116 12/40/116
f 57/59/117 59/62/117 20/80/117
f 14/82/118 55/60/118 57/59/118
f 33/83/119 58/25/119 60/22/119
f 38/55/120 60/22/120 56/24/120
f 55/123/121 14/124/121 53/96/121
f 53/96/122 48/86/122 35/85/122
f 48/86/123 4/125/123 70/87/123
f 35/85/124 55/123/124 53/96/124
f 63/46/125 65/53/125 19/88/125
f 61/47/126 63/46/126 22/89/126
f 48/86/127 53/96/127 25/78/127
f 27/92/128 64/20/128 66/16/128
f 66/16/129 62/18/129 30/93/129
f 25/78/130 45/71/130 39/94/130
f 69/56/131 71/57/131 1/69/131
f 3/70/132 67/54/132 69/56/132
f 49/95/133 15/122/133 25/78/133
f 73/126/134 8/127/134 49/95/134
f 53/96/135 14/124/135 64/128/135
f 27/97/136 73/126/136 49/95/136
f 53/96/137 64/128/137 27/97/137
f 70/21/138 72/13/138 37/98/138
f 37/98/139 72/13/139 68/15/139
f 23/8/140 43/65/140 41/99/140
f 75/50/141 77/51/141 6/5/141
f 8/37/142 73/48/142 75/50/142
f 62/129/143 20/111/143 51/31/143
f 51/31/144 50/7/144 30/101/144
f 50/7/145 6/130/145 77/102/145
f 30/101/146 62/129/146 51/31/146
f 45/71/147 40/79/147 7/131/147
f 7/131/148 76/103/148 45/71/148
f 61/104/149 13/120/149 45/71/149
f 76/103/150 29/132/150 61/104/150
f 76/28/151 78/10/151 32/52/151
f 32/52/152 78/10/152 74/12/152
