# Blender v2.78 (sub 0) OBJ File: ''
# www.blender.org
v -0.097087 0.983007 -0.087035
v -0.030002 0.890672 0.107139
v -0.097087 0.983007 0.107139
v -0.030002 0.890672 -0.087035
v 0.078545 0.925941 0.107139
v 0.078545 0.925941 -0.087035
v 0.078545 1.040074 0.107139
v -0.005504 0.999948 -0.134783
v 0.014411 0.993477 -0.134783
v 0.014411 0.972538 -0.134783
v 0.078545 1.040074 -0.087035
v -0.030002 1.075343 0.107139
v -0.030002 1.075343 -0.087035
v -0.021249 0.917610 -0.120060
v -0.068763 0.983007 -0.120060
v 0.055630 0.942590 -0.120060
v 0.055630 1.023425 -0.120060
v -0.021249 1.048404 -0.120060
v -0.005504 0.966067 -0.134783
v -0.017812 0.983007 -0.134783
vt 0.0000 0.0000
vt 1.0000 0.0000
vt 1.0000 1.0000
vt 0.0000 0.0000
vt 1.0000 0.0000
vt 1.0000 1.0000
vt 0.0000 0.0000
vt 1.0000 0.0000
vt 1.0000 1.0000
vt 0.0000 0.0000
vt 1.0000 0.0000
vt 1.0000 1.0000
vt 0.0000 0.0000
vt 1.0000 0.0000
vt 1.0000 1.0000
vt 0.0000 0.0000
vt 1.0000 0.0000
vt 1.0000 1.0000
vt 0.0000 0.0000
vt 0.0000 0.0000
vt 1.0000 0.0000
vt 1.0000 1.0000
vt 0.0000 0.0000
vt 1.0000 0.0000
vt 1.0000 1.0000
vt 0.0000 0.0000
vt 1.0000 0.0000
vt 1.0000 1.0000
vt 0.0000 0.0000
vt 1.0000 0.0000
vt 1.0000 1.0000
vt 0.0000 0.0000
vt 1.0000 0.0000
vt 1.0000 1.0000
vt 0.0000 0.0000
vt 1.0000 0.0000
vt 1.0000 1.0000
vt 0.0000 0.0000
vt 1.0000 0.0000
vt 1.0000 1.0000
vt 0.0000 0.0000
vt 1.0000 0.0000
vt 1.0000 0.0000
vt 1.0000 1.0000
vt 1.0000 0.0000
vt 0.0000 0.0000
vt 1.0000 0.0000
vt 0.0000 0.0000
vt 1.0000 1.0000
vt 1.0000 1.0000
vt 1.0000 1.0000
vt 1.0000 1.0000
vt 1.0000 1.0000
vt 1.0000 0.0000
vt 1.0000 0.0000
vn -0.8090 -0.5878 0.0000
vn 0.3090 -0.9511 0.0000
vn 1.0000 0.0000 0.0000
vn -0.0000 0.0000 -1.0000
vn 0.3090 0.9511 0.0000
vn -0.8090 0.5878 0.0000
vn 0.0000 -0.0000 1.0000
vn -0.6647 -0.4829 -0.5701
vn 0.2539 -0.7814 -0.5701
vn 0.8216 0.0000 -0.5701
vn 0.2539 0.7814 -0.5701
vn -0.6647 0.4829 -0.5701
vn -0.2721 -0.1977 -0.9417
vn 0.1039 -0.3199 -0.9417
vn 0.3364 0.0000 -0.9417
vn 0.1039 0.3199 -0.9417
vn -0.2721 0.1977 -0.9417
s 1
f 1/1/1 2/2/1 3/3/1
f 4/4/2 5/5/2 2/6/2
f 6/7/3 7/8/3 5/9/3
f 8/10/4 9/11/4 10/12/4
f 11/13/5 12/14/5 7/15/5
f 13/16/6 3/17/6 12/18/6
f 2/19/7 7/8/7 12/18/7
f 14/20/8 1/21/8 15/22/8
f 16/23/9 4/24/9 14/25/9
f 17/26/10 6/27/10 16/28/10
f 18/29/11 11/30/11 17/31/11
f 15/32/12 13/33/12 18/34/12
f 19/35/13 15/36/13 20/37/13
f 10/38/14 14/39/14 19/40/14
f 9/41/15 16/42/15 10/12/15
f 8/10/16 17/43/16 9/44/16
f 8/10/17 15/36/17 18/34/17
f 1/1/1 4/24/1 2/6/1
f 4/4/2 6/27/2 5/9/2
f 6/7/3 11/30/3 7/15/3
f 10/38/4 19/45/4 20/37/4
f 20/46/4 8/47/4 10/12/4
f 11/13/5 13/33/5 12/18/5
f 13/16/6 1/21/6 3/3/6
f 12/48/7 3/17/7 2/6/7
f 2/19/7 5/5/7 7/15/7
f 14/20/8 4/24/8 1/49/8
f 16/23/9 6/27/9 4/50/9
f 17/26/10 11/30/10 6/51/10
f 18/29/11 13/33/11 11/52/11
f 15/32/12 1/21/12 13/53/12
f 19/35/13 14/39/13 15/22/13
f 10/38/14 16/42/14 14/25/14
f 9/41/15 17/43/15 16/28/15
f 8/10/16 18/54/16 17/31/16
f 8/10/17 20/55/17 15/22/17
