# Blender v2.79 (sub 0) OBJ File: 'Arena.blend'
# www.blender.org
v 0.663714 0.365388 4.787147
v 0.000000 0.365388 4.610658
v 0.000000 0.512847 4.706124
v 0.615615 0.512847 4.869823
v 1.066277 0.512847 5.317056
v 1.231230 0.512847 5.927989
v 1.066277 0.512847 6.538921
v 0.615615 0.512847 6.986155
v 0.000000 0.512847 7.149853
v -0.615615 0.512847 6.986155
v -1.066277 0.512847 6.538921
v -1.231230 0.512847 5.927989
v -1.149587 0.489336 5.269324
v -0.615616 0.512847 4.869823
v 1.149587 0.365388 5.269323
v 1.327428 0.365388 5.927989
v 1.149587 0.365388 6.586654
v 0.663714 0.365388 7.068830
v 0.000000 0.365388 7.245319
v -0.663714 0.365388 7.068831
v -1.149586 0.365388 6.586654
v -1.327428 0.365388 5.927989
v -1.149587 0.365388 5.269324
v -0.663715 0.365388 4.787147
v 0.663714 0.489336 4.787147
v 0.000000 0.489336 4.610658
v 1.149587 0.489336 5.269323
v 1.327428 0.489336 5.927989
v 1.149587 0.489336 6.586654
v 0.663714 0.489336 7.068830
v 0.000000 0.489336 7.245319
v -0.663714 0.489336 7.068831
v -1.149586 0.489336 6.586654
v -1.327428 0.489336 5.927989
v -1.066277 0.512847 5.317057
v -0.663715 0.489336 4.787147
v 0.663714 0.365388 -7.068829
v 0.000000 0.365388 -7.245317
v 0.000000 0.512847 -7.149850
v 0.615615 0.512847 -6.986153
v 1.066277 0.512847 -6.538918
v 1.231230 0.512847 -5.927986
v 1.066277 0.512847 -5.317054
v 0.615615 0.512847 -4.869821
v 0.000000 0.512847 -4.706122
v -0.615615 0.512847 -4.869821
v -1.066277 0.512847 -5.317054
v -1.231230 0.512847 -5.927986
v -1.149587 0.489336 -6.586652
v -0.615616 0.512847 -6.986152
v 1.149587 0.365388 -6.586652
v 1.327428 0.365388 -5.927986
v 1.149587 0.365388 -5.269321
v 0.663714 0.365388 -4.787145
v 0.000000 0.365388 -4.610656
v -0.663714 0.365388 -4.787145
v -1.149586 0.365388 -5.269321
v -1.327428 0.365388 -5.927986
v -1.149587 0.365388 -6.586652
v -0.663715 0.365388 -7.068828
v 0.663714 0.489336 -7.068829
v 0.000000 0.489336 -7.245317
v 1.149587 0.489336 -6.586652
v 1.327428 0.489336 -5.927986
v 1.149587 0.489336 -5.269321
v 0.663714 0.489336 -4.787145
v 0.000000 0.489336 -4.610656
v -0.663714 0.489336 -4.787145
v -1.149586 0.489336 -5.269321
v -1.327428 0.489336 -5.927986
v -1.066277 0.512847 -6.538918
v -0.663715 0.489336 -7.068828
vt 0.334173 0.002485
vt 0.438193 0.087933
vt 0.327044 0.027238
vt 0.456111 0.069786
vt 0.503542 0.192384
vt 0.527942 0.186009
vt 0.504006 0.313251
vt 0.527942 0.320854
vt 0.439127 0.415633
vt 0.455630 0.434757
vt 0.328078 0.472453
vt 0.333344 0.497434
vt 0.200547 0.471430
vt 0.822368 0.948103
vt 0.604293 0.889941
vt 0.545770 0.789364
vt 0.194230 0.496051
vt 0.088972 0.416769
vt 0.821506 0.515354
vt 0.981366 0.673896
vt 0.704604 0.515329
vt 0.071510 0.435051
vt 0.024662 0.313093
vt 0.603529 0.573132
vt 0.000196 0.319347
vt 0.024734 0.190940
vt 0.000482 0.183427
vt 0.088936 0.085254
vt 0.923545 0.890275
vt 0.071780 0.066239
vt 0.199590 0.025390
vt 0.194075 0.000196
vt 0.705502 0.948055
vt 0.827136 0.965644
vt 0.700817 0.965540
vt 0.981733 0.789891
vt 0.936473 0.903104
vt 0.999353 0.794581
vt 0.922807 0.573399
vt 0.998941 0.669214
vt 0.826172 0.497827
vt 0.935633 0.560633
vt 0.699827 0.497827
vt 0.545398 0.673405
vt 0.590615 0.560319
vt 0.528162 0.794033
vt 0.527823 0.668709
vt 0.591458 0.902698
vt 0.194041 0.499880
vt 0.326968 0.522559
vt 0.199401 0.524660
vt 0.333036 0.497827
vt 0.438375 0.577035
vt 0.455705 0.558665
vt 0.503101 0.679294
vt 0.527430 0.673007
vt 0.502567 0.800466
vt 0.526679 0.807956
vt 0.438479 0.906626
vt 0.455741 0.925487
vt 0.327772 0.968082
vt 0.546250 0.291825
vt 0.706193 0.450558
vt 0.604877 0.392476
vt 0.333865 0.993123
vt 0.200304 0.970526
vt 0.705293 0.017684
vt 0.923133 0.075739
vt 0.981745 0.176281
vt 0.193641 0.995472
vt 0.089393 0.911062
vt 0.604201 0.075391
vt 0.071326 0.929262
vt 0.024802 0.805571
vt 0.823002 0.450562
vt 0.000196 0.811888
vt 0.024305 0.683420
vt 0.924060 0.392707
vt 0.000196 0.675964
vt 0.088228 0.579578
vt 0.071727 0.560485
vt 0.701551 0.468056
vt 0.827784 0.468056
vt 0.982180 0.292301
vt 0.936989 0.405521
vt 0.999804 0.296980
vt 0.999325 0.171590
vt 0.821969 0.017692
vt 0.935965 0.062948
vt 0.700558 0.000196
vt 0.826618 0.000251
vt 0.591315 0.062539
vt 0.528334 0.170988
vt 0.545951 0.175725
vt 0.528615 0.296499
vt 0.592028 0.405285
vn 0.2570 0.0000 -0.9664
vn 0.7044 0.0000 -0.7098
vn 0.9654 0.0000 -0.2607
vn 0.9654 0.0000 0.2607
vn 0.7044 0.0000 0.7098
vn 0.2570 0.0000 0.9664
vn 0.0000 1.0000 0.0000
vn -0.2570 0.0000 0.9664
vn -0.7044 0.0000 0.7098
vn -0.9654 0.0000 0.2607
vn -0.9654 0.0000 -0.2607
vn -0.7044 0.0000 -0.7098
vn -0.2570 0.0000 -0.9664
vn 0.0635 0.9690 -0.2386
vn 0.1734 0.9692 -0.1747
vn 0.2369 0.9694 -0.0640
vn 0.2369 0.9694 0.0640
vn 0.1734 0.9692 0.1747
vn 0.0635 0.9690 0.2386
vn -0.0635 0.9690 0.2386
vn -0.1734 0.9692 0.1747
vn -0.2369 0.9694 0.0640
vn -0.2369 0.9694 -0.0640
vn -0.1734 0.9692 -0.1747
vn -0.0635 0.9690 -0.2386
s off
f 26/1/1 1/2/1 2/3/1
f 25/4/2 15/5/2 1/2/2
f 27/6/3 16/7/3 15/5/3
f 28/8/4 17/9/4 16/7/4
f 29/10/5 18/11/5 17/9/5
f 30/12/6 19/13/6 18/11/6
f 4/14/7 14/15/7 35/16/7
f 31/17/8 20/18/8 19/13/8
f 9/19/7 7/20/7 10/21/7
f 32/22/9 21/23/9 20/18/9
f 35/16/7 11/24/7 10/21/7
f 33/25/10 22/26/10 21/23/10
f 4/14/7 10/21/7 7/20/7
f 34/27/11 23/28/11 22/26/11
f 7/20/7 5/29/7 4/14/7
f 13/30/12 24/31/12 23/28/12
f 36/32/13 2/3/13 24/31/13
f 3/33/14 25/34/14 26/35/14
f 5/29/15 25/34/15 4/14/15
f 6/36/16 27/37/16 5/29/16
f 7/20/17 28/38/17 6/36/17
f 8/39/18 29/40/18 7/20/18
f 8/39/19 31/41/19 30/42/19
f 10/21/20 31/41/20 9/19/20
f 11/24/21 32/43/21 10/21/21
f 12/44/22 33/45/22 11/24/22
f 12/44/23 13/46/23 34/47/23
f 14/15/24 13/46/24 35/16/24
f 14/15/25 26/35/25 36/48/25
f 62/49/1 37/50/1 38/51/1
f 61/52/2 51/53/2 37/50/2
f 63/54/3 52/55/3 51/53/3
f 64/56/4 53/57/4 52/55/4
f 65/58/5 54/59/5 53/57/5
f 66/60/6 55/61/6 54/59/6
f 71/62/7 39/63/7 50/64/7
f 67/65/8 56/66/8 55/61/8
f 46/67/7 44/68/7 43/69/7
f 68/70/9 57/71/9 56/66/9
f 71/62/7 47/72/7 46/67/7
f 69/73/10 58/74/10 57/71/10
f 40/75/7 46/67/7 43/69/7
f 70/76/11 59/77/11 58/74/11
f 43/69/7 41/78/7 40/75/7
f 49/79/12 60/80/12 59/77/12
f 72/81/13 38/51/13 60/80/13
f 40/75/14 62/82/14 39/63/14
f 41/78/15 61/83/15 40/75/15
f 42/84/16 63/85/16 41/78/16
f 43/69/17 64/86/17 42/84/17
f 44/68/18 65/87/18 43/69/18
f 45/88/19 66/89/19 44/68/19
f 45/88/20 68/90/20 67/91/20
f 46/67/21 69/92/21 68/90/21
f 47/72/22 70/93/22 69/92/22
f 48/94/23 49/95/23 70/93/23
f 50/64/24 49/95/24 71/62/24
f 39/63/25 72/96/25 50/64/25
f 26/1/1 25/4/1 1/2/1
f 25/4/2 27/6/2 15/5/2
f 27/6/3 28/8/3 16/7/3
f 28/8/4 29/10/4 17/9/4
f 29/10/5 30/12/5 18/11/5
f 30/12/6 31/17/6 19/13/6
f 4/14/7 3/33/7 14/15/7
f 31/17/8 32/22/8 20/18/8
f 9/19/7 8/39/7 7/20/7
f 32/22/9 33/25/9 21/23/9
f 35/16/7 12/44/7 11/24/7
f 33/25/10 34/27/10 22/26/10
f 4/14/7 35/16/7 10/21/7
f 34/27/11 13/30/11 23/28/11
f 7/20/7 6/36/7 5/29/7
f 13/30/12 36/32/12 24/31/12
f 36/32/13 26/1/13 2/3/13
f 3/33/14 4/14/14 25/34/14
f 5/29/15 27/37/15 25/34/15
f 6/36/16 28/38/16 27/37/16
f 7/20/17 29/40/17 28/38/17
f 8/39/18 30/42/18 29/40/18
f 8/39/19 9/19/19 31/41/19
f 10/21/20 32/43/20 31/41/20
f 11/24/21 33/45/21 32/43/21
f 12/44/22 34/47/22 33/45/22
f 12/44/23 35/16/23 13/46/23
f 14/15/24 36/48/24 13/46/24
f 14/15/25 3/33/25 26/35/25
f 62/49/1 61/52/1 37/50/1
f 61/52/2 63/54/2 51/53/2
f 63/54/3 64/56/3 52/55/3
f 64/56/4 65/58/4 53/57/4
f 65/58/5 66/60/5 54/59/5
f 66/60/6 67/65/6 55/61/6
f 71/62/7 40/75/7 39/63/7
f 67/65/8 68/70/8 56/66/8
f 46/67/7 45/88/7 44/68/7
f 68/70/9 69/73/9 57/71/9
f 71/62/7 48/94/7 47/72/7
f 69/73/10 70/76/10 58/74/10
f 40/75/7 71/62/7 46/67/7
f 70/76/11 49/79/11 59/77/11
f 43/69/7 42/84/7 41/78/7
f 49/79/12 72/81/12 60/80/12
f 72/81/13 62/49/13 38/51/13
f 40/75/14 61/83/14 62/82/14
f 41/78/15 63/85/15 61/83/15
f 42/84/16 64/86/16 63/85/16
f 43/69/17 65/87/17 64/86/17
f 44/68/18 66/89/18 65/87/18
f 45/88/19 67/91/19 66/89/19
f 45/88/20 46/67/20 68/90/20
f 46/67/21 47/72/21 69/92/21
f 47/72/22 48/94/22 70/93/22
f 48/94/23 71/62/23 49/95/23
f 50/64/24 72/96/24 49/95/24
f 39/63/25 62/82/25 72/96/25
